HIERARCHY
ROOT hip
{
	OFFSET 0.000000 0.000000 0.000000 
	CHANNELS 6 Xposition Yposition Zposition Xrotation Zrotation Yrotation
	JOINT abdomen
	{
		OFFSET 0.000000 3.402643 0.000000 
		CHANNELS 3 Xrotation Zrotation Yrotation
		JOINT chest
		{
			OFFSET 0.000000 8.438565 -0.680529 
			CHANNELS 3 Xrotation Zrotation Yrotation
			JOINT neck
			{
				OFFSET 0.000000 10.207942 -0.272212 
				CHANNELS 3 Xrotation Zrotation Yrotation
				JOINT head
				{
					OFFSET 0.000000 3.130431 0.000000 
					CHANNELS 3 Xrotation Zrotation Yrotation
					End Site
					{
						OFFSET 0.000000 3.130435 0.000000 
					}
				}
			}
			JOINT lCollar
			{
				OFFSET 3.470700 6.669187 -0.816635 
				CHANNELS 3 Yrotation Zrotation Xrotation
				JOINT lShldr
				{
					OFFSET 3.198488 0.000000 0.000000 
					CHANNELS 3 Zrotation Yrotation Xrotation
					JOINT lForeArm
					{
						OFFSET 10.139888 0.000000 0.000000 
						CHANNELS 3 Yrotation Zrotation Xrotation
						JOINT lHand
						{
							OFFSET 8.370511 0.000000 0.000000 
							CHANNELS 3 Zrotation Yrotation Xrotation
							End Site
							{
								OFFSET 4.083176 0.000000 0.000000 
							}
						}
					}
				}
			}
			JOINT rCollar
			{
				OFFSET -3.470700 6.669187 -0.816635 
				CHANNELS 3 Yrotation Zrotation Xrotation
				JOINT rShldr
				{
					OFFSET -3.198488 0.000000 0.000000 
					CHANNELS 3 Zrotation Yrotation Xrotation
					JOINT rForeArm
					{
						OFFSET -10.139888 0.000000 0.000000 
						CHANNELS 3 Yrotation Zrotation Xrotation
						JOINT rHand
						{
							OFFSET -8.370511 0.000000 0.000000 
							CHANNELS 3 Zrotation Yrotation Xrotation
							End Site
							{
								OFFSET -4.083176 0.000000 0.000000 
							}
						}
					}
				}
			}
		}
	}
	JOINT lThigh
	{
		OFFSET 5.308129 -1.633274 1.361059 
		CHANNELS 3 Xrotation Zrotation Yrotation
		JOINT lShin
		{
			OFFSET -2.041588 -20.007561 0.000000 
			CHANNELS 3 Xrotation Zrotation Yrotation
			JOINT lFoot
			{
				OFFSET 0.000000 -19.190928 -1.224953 
				CHANNELS 3 Xrotation Yrotation Zrotation
				End Site
				{
					OFFSET 0.000000 -2.449906 4.627600 
				}
			}
		}
	}
	JOINT rThigh
	{
		OFFSET -5.308129 -1.633274 1.361059 
		CHANNELS 3 Xrotation Zrotation Yrotation
		JOINT rShin
		{
			OFFSET 2.041588 -20.007561 0.000000 
			CHANNELS 3 Xrotation Zrotation Yrotation
			JOINT rFoot
			{
				OFFSET 0.000000 -19.190928 -1.224953 
				CHANNELS 3 Xrotation Yrotation Zrotation
				End Site
				{
					OFFSET 0.000000 -2.449906 4.627600 
				}
			}
		}
	}
}
MOTION
Frames: 6
Frame Time: 0.016667
0.966723 52.412685 0.990548 -10.469512 1.767671 8.461111 17.985235 1.590854 -0.931904 4.300139 0.410105 -1.318336 1.203439 3.835825 -0.105578 18.202644 -3.755167 2.838098 -15.892388 -17.956285 -0.955907 -65.601311 13.945012 -31.654547 -56.937176 -5.000000 10.149531 17.675879 -30.000000 45.000000 21.125814 15.489168 -0.819905 53.190495 6.771013 4.157914 83.894363 5.000000 4.392785 8.980242 -20.560377 -27.293081 14.843345 16.453686 1.579189 6.811211 -5.444794 -0.884012 -9.590666 6.207990 -7.047302 24.535082 -8.095464 -15.611393 -0.625152 3.033243 -0.007292 -8.212099 -17.949612 7.692613 
0.969311 52.413937 0.986625 -10.466637 1.786990 8.461415 17.995275 1.584237 -0.913193 4.310215 0.390576 -1.308572 1.193691 3.826169 -0.104118 18.204567 -3.755262 2.808225 -15.882792 -17.966036 -0.956410 -65.593239 13.941250 -31.656212 -56.945702 -5.000000 10.156451 17.617319 -30.000000 45.000000 21.135580 15.489170 -0.819905 53.198257 6.766505 4.137656 83.880913 5.000000 4.403190 9.047739 -20.494160 -27.290567 14.819818 16.421272 1.562023 6.830356 -5.436680 -0.875607 -9.675985 6.266376 -7.039007 24.525074 -8.095403 -15.631339 -0.594804 2.999782 0.005666 -8.228152 -17.929405 7.699057 
0.972639 52.414734 0.982699 -10.476403 1.786990 8.461414 18.014782 1.593514 -0.909777 4.320199 0.380813 -1.298808 1.164395 3.826169 -0.104118 18.205847 -3.755324 2.788735 -15.885839 -17.963364 -0.965345 -65.587708 13.941491 -31.668787 -56.945702 -5.000000 10.156450 17.584770 -30.000000 45.000000 21.128340 15.485649 -0.828684 53.196640 6.768514 4.124089 83.868462 5.000000 4.416184 9.099424 -20.447002 -27.298990 14.834011 16.435274 1.567419 6.828981 -5.453900 -0.886075 -9.766241 6.244411 -7.056629 24.538261 -8.115614 -15.627149 -0.592442 3.030094 0.004992 -8.218579 -17.909876 7.698783 
0.976896 52.414997 0.978773 -10.485864 1.786944 8.471175 18.024670 1.584185 -0.913403 4.339861 0.380815 -1.279278 1.125332 3.826169 -0.104118 18.207129 -3.755387 2.769246 -15.895604 -17.963362 -0.965345 -65.586143 13.919713 -31.668268 -56.935497 -5.000000 10.154613 17.568369 -30.000000 45.000000 21.099041 15.485656 -0.828685 53.204056 6.783451 4.113783 83.852661 5.000000 4.441881 9.134080 -20.408630 -27.331062 14.809576 16.430456 1.533246 6.852006 -5.456088 -0.897554 -9.761799 6.291997 -7.045257 24.532251 -8.104665 -15.634347 -0.564900 3.015476 0.007195 -8.184991 -17.954187 7.691718 
0.980612 52.415371 0.974835 -10.506531 1.777240 8.480936 18.044214 1.593393 -0.910134 4.359668 0.371052 -1.259748 1.086270 3.826169 -0.104118 18.209053 -3.755479 2.740013 -15.895604 -17.963362 -0.965345 -65.578575 13.907068 -31.673964 -56.923481 -5.000000 10.156290 17.535797 -30.000000 45.000000 21.076984 15.489168 -0.819905 53.200459 6.806906 4.095444 83.853653 5.000000 4.449240 9.173483 -20.378910 -27.362919 14.821733 16.432880 1.523980 6.863154 -5.457200 -0.917917 -9.772226 6.291623 -7.045167 24.538261 -8.115614 -15.627149 -0.562516 3.026098 0.016745 -8.148075 -17.975037 7.687689 
0.982996 52.416233 0.970808 -10.512281 1.806262 8.471177 18.063959 1.565973 -0.920086 4.369418 0.380819 -1.240216 1.075915 3.795743 -0.109374 18.203234 -3.726336 2.700400 -15.876247 -17.973118 -0.965849 -65.570992 13.894424 -31.679665 -56.909401 -5.000000 10.146591 17.519644 -30.000000 45.000000 21.076839 15.479418 -0.819400 53.198841 6.808917 4.081875 83.838356 5.000000 4.449232 9.200646 -20.354042 -27.337132 14.830617 16.411480 1.540590 6.871761 -5.446567 -0.908575 -9.755830 6.280857 -7.062037 24.542374 -8.134074 -15.643117 -0.555526 3.007533 0.017765 -8.180714 -17.967428 7.687905 
